<svg width="650" height="650" viewBox="0 0 650 650" fill="none" xmlns="http://www.w3.org/2000/svg">
<path fill-rule="evenodd" clip-rule="evenodd" d="M275.123 568.151C262.732 568.151 261.642 568.317 258.083 570.731L254.284 573.311L253.319 570.99C250.382 563.903 249.272 543.562 251.171 531.708C251.659 528.672 251.877 525.998 251.659 525.781C251.451 525.553 247.881 526.641 243.719 528.185C219.227 537.314 207.666 539.956 197.911 538.671C192.068 537.894 189.058 536.516 183.443 532.05C181.274 530.319 178.96 528.734 178.296 528.506C177.476 528.237 177.974 526.123 179.811 521.967C185.685 508.725 188.134 484.695 186.038 460.904C184.305 441.247 185.81 418.482 190.002 400.804C192.483 390.338 194.216 385.282 196.198 382.67C197.713 380.681 203.556 372.288 209.171 364.019C219.497 348.818 222.735 344.289 233.964 329.306C246.698 312.312 252.209 305.991 272.477 285.195C291.583 265.59 307.97 250.782 328.021 235.022C332.296 231.654 338.938 226.141 342.778 222.763C352.866 213.894 357.878 212.878 391.327 212.899L416.753 212.919L455.671 201.397C477.07 195.055 500.421 188.04 507.561 185.802C514.701 183.574 522.402 181.295 524.685 180.745C526.968 180.196 534.835 178.072 542.162 176.02C549.489 173.969 558.601 171.834 562.399 171.285C573.068 169.751 595.277 170.083 603.04 171.907C606.755 172.777 612.816 174.114 616.531 174.891C625.093 176.663 638.418 181.067 638.46 182.134C638.512 183.398 633.406 186.517 624.003 190.962C608.955 198.071 581.048 215.355 566.716 226.432C565.284 227.53 560.469 230.69 556.006 233.447C548.181 238.275 529.698 252.699 526.325 256.595C525.422 257.642 518.147 264.243 510.156 271.279C481.045 296.893 477.434 301.587 477.506 313.763C477.527 316.861 477.527 318.944 478.492 320.374C480.485 323.296 486.515 323.493 505.019 324.115C532.064 325.026 550.433 325.431 607.191 326.363C629.161 326.715 648.039 327.327 649.129 327.721C650.8 328.322 650.052 329.202 644.459 333.161C630.209 343.253 617.143 350.372 607.71 353.18C591.935 357.874 583.041 361.584 560.189 373.003C537.824 384.163 527.487 390.898 518.853 399.934C511.142 407.985 498.325 434.025 492.586 453.257C488.569 466.727 487.293 469.971 479.042 487.773C477.039 492.094 473.677 496.394 467.699 502.28C463.019 506.88 456.719 513.533 453.699 517.056C450.669 520.589 445.531 525.066 442.273 527.003C439.014 528.941 421.434 536.547 403.199 543.894C371.266 556.784 369.761 557.281 362.071 557.416C355.958 557.52 353.966 557.198 353.519 556.048C353.198 555.219 354.339 551.261 356.052 547.251C357.754 543.241 359.155 539.303 359.155 538.516C359.155 536.671 356.187 536.64 354.049 538.443C350.645 541.324 329.38 554.079 324.118 556.401C317.601 559.271 309.765 561.955 297.426 565.529C289.829 567.726 286.197 568.151 275.123 568.151ZM360.719 311.515C367.916 315.176 371.236 315.6 387.214 314.867L405.507 314.02L412.513 306.14C419.343 298.432 429.745 274.348 429.726 266.236C429.726 262.471 422.214 254.221 413.948 247.796C409.907 244.654 405.685 241.949 402.072 240.418C388.932 234.83 369.923 235.081 358.326 240.977C351.205 244.58 348.504 247.604 343.313 257.778C339.839 264.599 336.481 274.502 335.883 279.8C334.803 289.222 334.976 289.628 343.641 298.374C348.522 303.288 356.203 309.203 360.719 311.515ZM453.066 348.455C453.782 349.626 458.494 349.315 468.125 347.46C481.139 344.953 486.016 344.186 494.589 343.295C505.621 342.145 521.053 339.057 521.053 337.989C521.053 336.331 514.566 336.041 499.259 337.005C490.002 337.596 481.637 337.647 479.54 337.129C471.996 335.264 465.416 332.891 462.012 330.808L458.504 328.643L459.085 320.167C460.113 305.111 463.776 298.935 483.629 278.739C493.551 268.636 499.207 263.859 507.302 258.699C517.296 252.337 519.766 250.036 516.58 250.036C514.048 250.036 491.506 262.388 481.108 269.476C475.41 273.361 469.671 278.159 468.353 280.128C467.045 282.096 461.535 288.283 456.117 293.857C450.689 299.443 446.351 304.572 446.455 305.256C446.569 305.95 446.372 307.204 446.009 308.064C444.888 310.779 441.328 325.285 440.592 330.156C440.187 332.891 440.384 336.342 441.069 338.425C442.47 342.652 448.718 348.693 450.855 347.875C451.675 347.554 452.672 347.823 453.066 348.455Z" fill="currentColor"/>
<path fill-rule="evenodd" clip-rule="evenodd" d="M389.763 300.051C389.105 300.945 384.852 301.374 380.302 301.004C372.811 300.395 371.315 299.516 363.967 291.412C356.353 282.994 355.934 282.013 356.6 274.027C357.516 263.185 360.745 257.972 368.489 254.848C376.09 251.781 389.483 252.646 395.808 256.603C403.984 261.711 406.993 268.118 406.141 278.604C405.272 289.294 399.412 299.114 394.143 298.686C392.382 298.543 390.421 299.158 389.763 300.051Z" fill="currentColor"/>
<path d="M341.191 163.601C346.417 163.962 347.557 163.648 349.506 162.139C350.936 161.039 354.894 158.839 358.313 157.272C361.732 155.695 368.498 151.418 373.336 147.766C384.785 139.131 397.933 130.435 407.01 125.505C416.687 120.244 426.167 114.422 437.243 106.93C456.867 93.6568 492.52 77.3114 501.845 77.3114C507.439 77.3115 509.584 80.5497 508.735 87.741C507.481 98.347 488.976 129.19 457.157 173.72C447.75 186.867 443.119 192.483 440.58 193.749C437.42 195.337 432.396 196.24 432.394 195.223C432.395 192.815 437.327 185.146 446.578 173.181C452.743 165.211 460.286 154.74 463.363 149.914C466.43 145.088 470.668 138.561 472.782 135.427C481.039 123.161 487.359 112.243 491.39 103.277C496.093 92.8062 496.425 91.3013 493.783 92.3181C492.789 92.7021 489.203 93.9571 485.826 95.0985C479.62 97.1949 453.262 111.703 442.756 118.812C439.627 120.929 434.259 124.198 430.84 126.076C424.198 129.729 415.702 136.143 403.736 146.541C399.653 150.08 391.033 156.804 384.567 161.474C355.971 182.157 327.996 206.722 297.701 237.762C271.757 264.339 250.909 287.886 232.581 311.329C226.779 318.748 220.677 326.458 219.018 328.452C212.812 335.903 196.276 362.169 187.655 378.265C185.055 383.111 181.283 389.888 179.263 393.313C177.253 396.737 172.694 404.676 169.14 410.954C165.587 417.232 161.101 424.86 159.173 427.901C157.246 430.942 153.547 438.186 150.946 443.987C148.346 449.788 144.409 458.422 142.181 463.165C139.964 467.906 138.141 472.161 138.14 472.62C138.138 473.07 135.331 478.86 131.903 485.467C128.475 492.073 125.752 497.85 125.852 498.324C125.955 498.791 124.744 501.884 123.169 505.205C119.636 512.656 118.496 519.402 120.776 519.402C125.317 519.398 157.806 494.017 170.902 480.237C175.004 475.931 175.202 475.837 175.813 478.108C176.165 479.416 176.456 483.101 176.466 486.297L176.476 492.119L169.482 498.314C156.728 509.626 148.107 516.818 136.068 526.21C121.376 537.656 118.153 539.825 106.829 545.854C100.664 549.144 98.975 549.134 98.1461 545.803C97.2034 542.046 98.5197 530.454 100.799 522.516C103.607 512.75 109.958 494.453 111.025 493.083C111.524 492.426 113.927 486.533 116.361 479.966C118.796 473.397 122.878 463.871 125.417 458.775C131.001 447.609 138.14 431.274 138.14 429.666C138.141 429.03 141 421.757 144.491 413.508C153.205 392.95 155.35 386.287 157.34 373.564C158.645 365.18 158.769 362.284 157.847 361.163C157.173 360.364 155.971 356.856 155.163 353.39C154.964 352.532 154.645 351.673 154.368 350.723C154.297 349.697 154.357 348.098 154.236 346.723C153.788 341.588 153.131 333.414 152.766 328.56L152.119 319.723L125.324 290.085L125.321 284.328C125.318 279.028 124.872 277.928 119.722 270.624C116.644 266.255 110.229 258.016 105.473 252.309C93.93 238.467 89.3721 236.235 83.7001 241.677C79.6841 245.523 73.2553 249.824 66.8988 252.922C61.526 255.533 59.445 257.17 58.4728 259.524C56.1561 265.165 53.8533 277.995 52.9794 290.141L52.1165 302.068L45.7103 311.4C42.1921 316.532 38.9012 320.877 38.3939 321.053C37.897 321.216 37.2955 317.949 37.0553 313.791C36.7521 308.429 35.1946 301.8 31.72 291.167C19.8127 254.754 15.0499 236.485 16.0413 231.165C16.4135 229.151 19.5152 220.483 22.9276 211.887C29.05 196.446 33.0421 186.221 35.6894 179.148C36.434 177.147 39.8784 168.166 43.3428 159.186C46.8072 150.205 50.5297 139.7 51.615 135.852C55.2005 123.101 60.1907 106.048 60.4217 105.798C60.5355 105.664 64.222 104.877 68.5916 104.039C78.0555 102.229 83.6981 99.8566 92.9525 93.7835C108.988 83.2745 110.418 82.7256 121.716 82.7419C140.231 82.7621 152.09 84.8112 181.929 93.135C186.061 94.2884 191.415 95.9509 193.839 96.8234C196.252 97.7063 200.799 99.1197 203.927 99.9823C207.055 100.834 214.046 103.193 219.464 105.229C224.881 107.264 237.9 111.928 248.403 115.595C258.905 119.262 268.465 123.053 269.636 124.028C270.807 124.994 273.407 127.277 275.396 129.093C277.385 130.91 282.182 134.304 286.036 136.65C292.22 140.408 293.794 140.907 299.386 140.91L305.734 140.913L312.687 148.178C316.8 152.474 320.499 155.441 321.731 155.442C322.891 155.443 324.413 156.149 325.118 157C325.822 157.851 327.065 158.556 327.873 158.557C328.681 158.557 331.177 159.492 333.414 160.634C335.1 161.503 338.297 162.753 341.191 163.601Z" fill="currentColor"/>
</svg>
